<svg width="232" height="24" viewBox="0 0 232 24" fill="none" xmlns="http://www.w3.org/2000/svg">
<path opacity="0.3" d="M12.4374 17.7514C11.9656 17.28 11.9656 16.5158 12.4374 16.0444C12.9093 15.5731 13.6744 15.5731 14.1463 16.0444L18.9796 20.8724C19.4515 21.3438 19.4515 22.108 18.9796 22.5794C18.5077 23.0507 17.7426 23.0507 17.2708 22.5794L12.4374 17.7514Z" fill="#6993FF"/>
<path fill-rule="evenodd" clip-rule="evenodd" d="M0 10.8629C0 15.5292 3.78692 19.3119 8.45832 19.3119C13.1297 19.3119 16.9166 15.5292 16.9166 10.8629C16.9166 6.19671 13.1297 2.41398 8.45832 2.41398C3.78692 2.41398 0 6.19671 0 10.8629ZM14.5 10.8629C14.5 14.196 11.795 16.8979 8.45832 16.8979C5.1216 16.8979 2.41666 14.196 2.41666 10.8629C2.41666 7.52992 5.1216 4.82797 8.45832 4.82797C11.795 4.82797 14.5 7.52992 14.5 10.8629Z" fill="#6993FF"/>
<path opacity="0.3" fill-rule="evenodd" clip-rule="evenodd" d="M51.2101 10.696C50.6222 11.2833 50.6222 12.2354 51.2101 12.8226L54.2077 15.8169C54.7956 16.4041 55.7488 16.4041 56.3366 15.8169L59.3342 12.8226C59.9221 12.2354 59.9221 11.2833 59.3342 10.696L56.3366 7.70178C55.7488 7.11454 54.7956 7.11454 54.2077 7.70178L51.2101 10.696ZM65.7101 10.696C65.1222 11.2833 65.1222 12.2354 65.7101 12.8226L68.7077 15.8169C69.2956 16.4041 70.2487 16.4041 70.8366 15.8169L73.8342 12.8226C74.4221 12.2354 74.4221 11.2833 73.8342 10.696L70.8366 7.70178C70.2487 7.11454 69.2956 7.11454 68.7077 7.70178L65.7101 10.696Z" fill="#6993FF"/>
<path fill-rule="evenodd" clip-rule="evenodd" d="M58.4601 3.45406C57.8722 4.04131 57.8723 4.99342 58.4601 5.58066L61.4577 8.5749C62.0456 9.16215 62.9988 9.16215 63.5867 8.5749L66.5842 5.58066C67.1721 4.99341 67.1721 4.0413 66.5842 3.45406L63.5867 0.459816C62.9988 -0.127427 62.0456 -0.127427 61.4577 0.459816L58.4601 3.45406ZM58.4601 17.938C57.8722 18.5252 57.8723 19.4773 58.4601 20.0646L61.4577 23.0588C62.0456 23.6461 62.9988 23.6461 63.5867 23.0588L66.5842 20.0646C67.1721 19.4773 67.1721 18.5252 66.5842 17.938L63.5867 14.9437C62.9988 14.3565 62.0456 14.3565 61.4577 14.9437L58.4601 17.938Z" fill="#6993FF"/>
<rect opacity="0.3" x="117.208" y="2.41398" width="3.62499" height="19.3119" rx="1.807" fill="#6993FF"/>
<rect x="111.166" y="8.44896" width="3.62499" height="13.2769" rx="1.807" fill="#6993FF"/>
<rect x="123.25" y="10.8629" width="3.62499" height="10.8629" rx="1.807" fill="#6993FF"/>
<rect x="105.124" y="13.2769" width="3.62499" height="8.44896" rx="1.807" fill="#6993FF"/>
<path opacity="0.3" d="M169.166 3.09238L164.053 9.22166C163.626 9.73375 162.864 9.80294 162.351 9.37619C161.838 8.94945 161.769 8.18836 162.196 7.67626L168.238 0.434295C168.721 -0.144765 169.612 -0.144765 170.095 0.434295L176.136 7.67626C176.564 8.18836 176.494 8.94945 175.982 9.37619C175.469 9.80294 174.707 9.73375 174.28 9.22166L169.166 3.09238Z" fill="#6993FF"/>
<path fill-rule="evenodd" clip-rule="evenodd" d="M158.895 8.44896H179.437C180.104 8.44896 180.645 8.98935 180.645 9.65595C180.645 9.8153 180.614 9.97308 180.552 10.1202L176.137 20.7046C175.574 22.0539 174.255 22.9329 172.791 22.9329H165.541C164.078 22.9329 162.758 22.0539 162.195 20.7046L157.78 10.1202C157.523 9.50485 157.815 8.79819 158.431 8.5418C158.578 8.48051 158.736 8.44896 158.895 8.44896ZM169.166 18.1049C170.501 18.1049 171.583 17.0241 171.583 15.6909C171.583 14.3577 170.501 13.2769 169.166 13.2769C167.832 13.2769 166.75 14.3577 166.75 15.6909C166.75 17.0241 167.832 18.1049 169.166 18.1049Z" fill="#6993FF"/>
<rect x="212.666" y="2.41398" width="8.45832" height="8.44896" rx="1.5" fill="#6993FF"/>
<path opacity="0.3" fill-rule="evenodd" clip-rule="evenodd" d="M223.541 3.91855C223.541 3.0876 224.215 2.41398 225.046 2.41398H230.495C231.326 2.41398 232 3.0876 232 3.91855V9.35838C232 10.1893 231.326 10.8629 230.495 10.8629H225.046C224.215 10.8629 223.541 10.1893 223.541 9.35838V3.91855ZM212.666 14.7815C212.666 13.9505 213.34 13.2769 214.171 13.2769H219.62C220.451 13.2769 221.125 13.9505 221.125 14.7815V20.2213C221.125 21.0523 220.451 21.7259 219.62 21.7259H214.171C213.34 21.7259 212.666 21.0523 212.666 20.2213V14.7815ZM225.046 13.2769C224.215 13.2769 223.541 13.9505 223.541 14.7815V20.2213C223.541 21.0523 224.215 21.7259 225.046 21.7259H230.495C231.326 21.7259 232 21.0523 232 20.2213V14.7815C232 13.9505 231.326 13.2769 230.495 13.2769H225.046Z" fill="#6993FF"/>
</svg>
