<svg width="20" height="20" viewBox="0 0 20 20" fill="none" xmlns="http://www.w3.org/2000/svg">
<path fill-rule="evenodd" clip-rule="evenodd" d="M10.0001 13.3333C7.6989 13.3333 5.83341 11.4678 5.83341 9.16666H4.16675C4.16675 12.1061 6.34088 14.5377 9.16879 14.9412C9.16744 14.9606 9.16675 14.9802 9.16675 15V17.5C9.16675 17.9602 9.53984 18.3333 10.0001 18.3333C10.4603 18.3333 10.8334 17.9602 10.8334 17.5V15C10.8334 14.9802 10.8327 14.9606 10.8314 14.9412C13.6593 14.5377 15.8334 12.1061 15.8334 9.16666H14.1667C14.1667 11.4678 12.3013 13.3333 10.0001 13.3333Z" fill="#FFA800"/>
<rect opacity="0.3" x="7.5" y="1.66666" width="5" height="10" rx="2.5" fill="#FFA800"/>
</svg>
