<svg width="95" height="75" viewBox="0 0 95 75" fill="none" xmlns="http://www.w3.org/2000/svg">
<path opacity="0.3" fill-rule="evenodd" clip-rule="evenodd" d="M15.8291 12.5L47.1945 7.85588C47.3887 7.82712 47.5861 7.82712 47.7803 7.85588L79.1457 12.5V49.4123C79.1457 53.5992 76.7687 57.4232 73.0141 59.2763L47.93 71.6566C47.651 71.7943 47.3238 71.7943 47.0448 71.6566L21.9607 59.2763C18.2061 57.4232 15.8291 53.5992 15.8291 49.4123L15.8291 12.5Z" fill="#B5B5C3"/>
<path fill-rule="evenodd" clip-rule="evenodd" d="M44.2224 46.0938C43.2743 46.0938 42.3262 45.7943 41.5677 45.1953L33.9829 39.2057C32.466 38.0078 32.466 36.2109 33.9829 35.013C35.4999 33.8151 37.965 33.8151 39.2923 35.013L44.2224 38.9062L56.7373 29.0234C58.2543 27.8255 60.5297 27.8255 62.0467 29.0234C63.5637 30.2214 63.5637 32.0182 62.0467 33.2161L46.8771 45.1953C46.1186 45.7943 45.1705 46.0938 44.2224 46.0938Z" fill="#B5B5C3"/>
</svg>
