<svg width="25" height="31" viewBox="0 0 25 31" fill="none" xmlns="http://www.w3.org/2000/svg">
<path opacity="0.3" d="M2.88176 0H15.395C15.7602 0 16.1136 0.129309 16.3925 0.365004L24.2793 7.02855C24.627 7.32224 24.8275 7.75419 24.8275 8.20925V28.0292C24.8275 30.8045 24.7958 31 21.9457 31H2.88176C0.0317294 31 0 30.8045 0 28.0292V2.97083C0 0.195493 0.0317294 0 2.88176 0Z" fill="#0ABB87"/>
<path fill-rule="evenodd" clip-rule="evenodd" d="M10.8618 18.6L7.7584 18.6C6.90141 18.6 6.20668 17.906 6.20668 17.05C6.20668 16.194 6.90141 15.5 7.7584 15.5L10.8618 15.5L10.8618 12.4C10.8618 11.544 11.5566 10.85 12.4135 10.85C13.2705 10.85 13.9653 11.544 13.9653 12.4L13.9653 15.5L17.0687 15.5C17.9257 15.5 18.6204 16.194 18.6204 17.05C18.6204 17.906 17.9257 18.6 17.0687 18.6L13.9653 18.6L13.9653 21.7C13.9653 22.556 13.2705 23.25 12.4135 23.25C11.5566 23.25 10.8618 22.556 10.8618 21.7L10.8618 18.6Z" fill="#0ABB87"/>
</svg>
