<svg width="85" height="81" viewBox="0 0 85 81" fill="none" xmlns="http://www.w3.org/2000/svg">
<path fill-rule="evenodd" clip-rule="evenodd" d="M15.033 10.125C14.4807 10.125 14.033 10.5727 14.033 11.125V69.875C14.033 70.4273 14.4807 70.875 15.033 70.875H23.5577C24.11 70.875 24.5577 70.4273 24.5577 69.875V11.125C24.5577 10.5727 24.11 10.125 23.5577 10.125H15.033ZM32.5742 10.125C32.0219 10.125 31.5742 10.5727 31.5742 11.125V69.875C31.5742 70.4273 32.0219 70.875 32.5742 70.875H41.099C41.6513 70.875 42.099 70.4273 42.099 69.875V11.125C42.099 10.5727 41.6513 10.125 41.099 10.125H32.5742Z" fill="#B5B5C3"/>
<rect opacity="0.3" width="10.4831" height="61.0087" rx="1" transform="matrix(0.949275 -0.314446 0.336987 0.941509 47.2812 13.2442)" fill="#B5B5C3"/>
</svg>
