<svg width="20" height="20" viewBox="0 0 20 20" fill="none" xmlns="http://www.w3.org/2000/svg">
<path fill-rule="evenodd" clip-rule="evenodd" d="M18.3295 14.9755C18.6451 15.2911 19.1846 15.0664 19.183 14.6201L19.1699 10.9211V4.60526C19.1699 3.44256 18.2273 2.5 17.0646 2.5H7.24003C6.07732 2.5 5.13477 3.44256 5.13477 4.60526V7.5H10.3332C11.9901 7.5 13.3332 8.84315 13.3332 10.5V13.0263H16.3803L18.3295 14.9755Z" fill="#1BC5BD"/>
<path opacity="0.3" fill-rule="evenodd" clip-rule="evenodd" d="M1.6543 15V10.8334C1.6543 9.91288 2.40049 9.16669 3.32096 9.16669H9.98763C10.9081 9.16669 11.6543 9.91288 11.6543 10.8334V15C11.6543 15.9205 10.9081 16.6667 9.98763 16.6667H3.41741L2.52182 17.5239C2.20381 17.8283 1.67609 17.6029 1.67609 17.1627V15.2702C1.66175 15.1823 1.6543 15.092 1.6543 15ZM5.00008 12.0834C5.00008 11.8532 5.18663 11.6667 5.41675 11.6667H9.58342C9.81353 11.6667 10.0001 11.8532 10.0001 12.0834C10.0001 12.3135 9.81353 12.5 9.58342 12.5H5.41675C5.18663 12.5 5.00008 12.3135 5.00008 12.0834ZM7.91675 13.3334C7.68663 13.3334 7.50008 13.5199 7.50008 13.75C7.50008 13.9801 7.68663 14.1667 7.91675 14.1667H9.58342C9.81353 14.1667 10.0001 13.9801 10.0001 13.75C10.0001 13.5199 9.81354 13.3334 9.58342 13.3334H7.91675Z" fill="#1BC5BD"/>
</svg>
