<svg width="116" height="352" viewBox="0 0 116 352" fill="none" xmlns="http://www.w3.org/2000/svg">
<rect x="84" y="320" width="32" height="32" rx="6" fill="#F3F6F9"/>
<path d="M95.5 333V342C95.5 342.828 96.1716 343.5 97 343.5H103C103.828 343.5 104.5 342.828 104.5 342V333H95.5Z" fill="#3699FF"/>
<path opacity="0.3" fill-rule="evenodd" clip-rule="evenodd" d="M101.5 330.375V330.25C101.5 329.698 101.052 329.25 100.5 329.25H99.5C98.9477 329.25 98.5 329.698 98.5 330.25V330.375H95.25C94.9739 330.375 94.75 330.599 94.75 330.875V331C94.75 331.276 94.9739 331.5 95.25 331.5H104.75C105.026 331.5 105.25 331.276 105.25 331V330.875C105.25 330.599 105.026 330.375 104.75 330.375H101.5Z" fill="#3699FF"/>
<rect x="42" y="320" width="32" height="32" rx="6" fill="#F3F6F9"/>
<path d="M64.1383 330.986C64.7157 331.564 64.7252 332.497 64.1596 333.086L58.7427 338.727C58.4674 339.014 58.0896 339.179 57.6922 339.188L55.4169 339.236L55.465 336.945C55.4731 336.557 55.6316 336.187 55.907 335.913L61.4441 330.407C62.0303 329.824 62.9777 329.826 63.5623 330.41L64.1383 330.986Z" fill="#3699FF"/>
<path opacity="0.3" d="M58.6002 329.333C58.9684 329.333 59.2668 329.632 59.2668 330C59.2668 330.368 58.9684 330.667 58.6002 330.667H54.0002C53.2638 330.667 52.6668 331.264 52.6668 332V340C52.6668 340.736 53.2638 341.333 54.0002 341.333H62.0002C62.7365 341.333 63.3335 340.736 63.3335 340V336.667C63.3335 336.298 63.632 336 64.0002 336C64.3684 336 64.6668 336.298 64.6668 336.667V340C64.6668 341.473 63.4729 342.667 62.0002 342.667H54.0002C52.5274 342.667 51.3335 341.473 51.3335 340V332C51.3335 330.527 52.5274 329.333 54.0002 329.333H58.6002Z" fill="#3699FF"/>
<rect y="320" width="32" height="32" rx="6" fill="#F3F6F9"/>
<path fill-rule="evenodd" clip-rule="evenodd" d="M12.25 329.25C10.5931 329.25 9.25 330.593 9.25 332.25C9.25 333.907 10.5931 335.25 12.25 335.25H19.75C21.4069 335.25 22.75 333.907 22.75 332.25C22.75 330.593 21.4069 329.25 19.75 329.25H12.25ZM13.75 332.25C13.75 333.078 13.0784 333.75 12.25 333.75C11.4216 333.75 10.75 333.078 10.75 332.25C10.75 331.422 11.4216 330.75 12.25 330.75C13.0784 330.75 13.75 331.422 13.75 332.25Z" fill="#3699FF"/>
<path opacity="0.3" fill-rule="evenodd" clip-rule="evenodd" d="M12.25 336.75C10.5931 336.75 9.25 338.093 9.25 339.75C9.25 341.407 10.5931 342.75 12.25 342.75H19.75C21.4069 342.75 22.75 341.407 22.75 339.75C22.75 338.093 21.4069 336.75 19.75 336.75H12.25ZM21.25 339.75C21.25 340.578 20.5784 341.25 19.75 341.25C18.9216 341.25 18.25 340.578 18.25 339.75C18.25 338.922 18.9216 338.25 19.75 338.25C20.5784 338.25 21.25 338.922 21.25 339.75Z" fill="#3699FF"/>
<rect x="84" y="240" width="32" height="32" rx="6" fill="#F3F6F9"/>
<path d="M95.5 253V262C95.5 262.828 96.1716 263.5 97 263.5H103C103.828 263.5 104.5 262.828 104.5 262V253H95.5Z" fill="#3699FF"/>
<path opacity="0.3" fill-rule="evenodd" clip-rule="evenodd" d="M101.5 250.375V250.25C101.5 249.698 101.052 249.25 100.5 249.25H99.5C98.9477 249.25 98.5 249.698 98.5 250.25V250.375H95.25C94.9739 250.375 94.75 250.599 94.75 250.875V251C94.75 251.276 94.9739 251.5 95.25 251.5H104.75C105.026 251.5 105.25 251.276 105.25 251V250.875C105.25 250.599 105.026 250.375 104.75 250.375H101.5Z" fill="#3699FF"/>
<rect x="42" y="240" width="32" height="32" rx="6" fill="#F3F6F9"/>
<path d="M64.1383 250.986C64.7157 251.564 64.7252 252.497 64.1596 253.086L58.7427 258.727C58.4674 259.014 58.0896 259.179 57.6922 259.188L55.4169 259.236L55.465 256.945C55.4731 256.557 55.6316 256.187 55.907 255.913L61.4441 250.407C62.0303 249.824 62.9777 249.826 63.5623 250.41L64.1383 250.986Z" fill="#3699FF"/>
<path opacity="0.3" d="M58.6002 249.333C58.9684 249.333 59.2668 249.632 59.2668 250C59.2668 250.368 58.9684 250.667 58.6002 250.667H54.0002C53.2638 250.667 52.6668 251.264 52.6668 252V260C52.6668 260.736 53.2638 261.333 54.0002 261.333H62.0002C62.7365 261.333 63.3335 260.736 63.3335 260V256.667C63.3335 256.298 63.632 256 64.0002 256C64.3684 256 64.6668 256.298 64.6668 256.667V260C64.6668 261.473 63.4729 262.667 62.0002 262.667H54.0002C52.5274 262.667 51.3335 261.473 51.3335 260V252C51.3335 250.527 52.5274 249.333 54.0002 249.333H58.6002Z" fill="#3699FF"/>
<rect y="240" width="32" height="32" rx="6" fill="#F3F6F9"/>
<path fill-rule="evenodd" clip-rule="evenodd" d="M12.25 249.25C10.5931 249.25 9.25 250.593 9.25 252.25C9.25 253.907 10.5931 255.25 12.25 255.25H19.75C21.4069 255.25 22.75 253.907 22.75 252.25C22.75 250.593 21.4069 249.25 19.75 249.25H12.25ZM13.75 252.25C13.75 253.078 13.0784 253.75 12.25 253.75C11.4216 253.75 10.75 253.078 10.75 252.25C10.75 251.422 11.4216 250.75 12.25 250.75C13.0784 250.75 13.75 251.422 13.75 252.25Z" fill="#3699FF"/>
<path opacity="0.3" fill-rule="evenodd" clip-rule="evenodd" d="M12.25 256.75C10.5931 256.75 9.25 258.093 9.25 259.75C9.25 261.407 10.5931 262.75 12.25 262.75H19.75C21.4069 262.75 22.75 261.407 22.75 259.75C22.75 258.093 21.4069 256.75 19.75 256.75H12.25ZM21.25 259.75C21.25 260.578 20.5784 261.25 19.75 261.25C18.9216 261.25 18.25 260.578 18.25 259.75C18.25 258.922 18.9216 258.25 19.75 258.25C20.5784 258.25 21.25 258.922 21.25 259.75Z" fill="#3699FF"/>
<rect x="84" y="160" width="32" height="32" rx="6" fill="#F3F6F9"/>
<path d="M95.5 173V182C95.5 182.828 96.1716 183.5 97 183.5H103C103.828 183.5 104.5 182.828 104.5 182V173H95.5Z" fill="#3699FF"/>
<path opacity="0.3" fill-rule="evenodd" clip-rule="evenodd" d="M101.5 170.375V170.25C101.5 169.698 101.052 169.25 100.5 169.25H99.5C98.9477 169.25 98.5 169.698 98.5 170.25V170.375H95.25C94.9739 170.375 94.75 170.599 94.75 170.875V171C94.75 171.276 94.9739 171.5 95.25 171.5H104.75C105.026 171.5 105.25 171.276 105.25 171V170.875C105.25 170.599 105.026 170.375 104.75 170.375H101.5Z" fill="#3699FF"/>
<rect x="42" y="160" width="32" height="32" rx="6" fill="#F3F6F9"/>
<path d="M64.1383 170.986C64.7157 171.564 64.7252 172.497 64.1596 173.086L58.7427 178.727C58.4674 179.014 58.0896 179.179 57.6922 179.188L55.4169 179.236L55.465 176.945C55.4731 176.557 55.6316 176.187 55.907 175.913L61.4441 170.407C62.0303 169.824 62.9777 169.826 63.5623 170.41L64.1383 170.986Z" fill="#3699FF"/>
<path opacity="0.3" d="M58.6002 169.333C58.9684 169.333 59.2668 169.632 59.2668 170C59.2668 170.368 58.9684 170.667 58.6002 170.667H54.0002C53.2638 170.667 52.6668 171.264 52.6668 172V180C52.6668 180.736 53.2638 181.333 54.0002 181.333H62.0002C62.7365 181.333 63.3335 180.736 63.3335 180V176.667C63.3335 176.298 63.632 176 64.0002 176C64.3684 176 64.6668 176.298 64.6668 176.667V180C64.6668 181.473 63.4729 182.667 62.0002 182.667H54.0002C52.5274 182.667 51.3335 181.473 51.3335 180V172C51.3335 170.527 52.5274 169.333 54.0002 169.333H58.6002Z" fill="#3699FF"/>
<rect y="160" width="32" height="32" rx="6" fill="#F3F6F9"/>
<path fill-rule="evenodd" clip-rule="evenodd" d="M12.25 169.25C10.5931 169.25 9.25 170.593 9.25 172.25C9.25 173.907 10.5931 175.25 12.25 175.25H19.75C21.4069 175.25 22.75 173.907 22.75 172.25C22.75 170.593 21.4069 169.25 19.75 169.25H12.25ZM13.75 172.25C13.75 173.078 13.0784 173.75 12.25 173.75C11.4216 173.75 10.75 173.078 10.75 172.25C10.75 171.422 11.4216 170.75 12.25 170.75C13.0784 170.75 13.75 171.422 13.75 172.25Z" fill="#3699FF"/>
<path opacity="0.3" fill-rule="evenodd" clip-rule="evenodd" d="M12.25 176.75C10.5931 176.75 9.25 178.093 9.25 179.75C9.25 181.407 10.5931 182.75 12.25 182.75H19.75C21.4069 182.75 22.75 181.407 22.75 179.75C22.75 178.093 21.4069 176.75 19.75 176.75H12.25ZM21.25 179.75C21.25 180.578 20.5784 181.25 19.75 181.25C18.9216 181.25 18.25 180.578 18.25 179.75C18.25 178.922 18.9216 178.25 19.75 178.25C20.5784 178.25 21.25 178.922 21.25 179.75Z" fill="#3699FF"/>
<rect x="84" y="80" width="32" height="32" rx="6" fill="#F3F6F9"/>
<path d="M95.5 93V102C95.5 102.828 96.1716 103.5 97 103.5H103C103.828 103.5 104.5 102.828 104.5 102V93H95.5Z" fill="#3699FF"/>
<path opacity="0.3" fill-rule="evenodd" clip-rule="evenodd" d="M101.5 90.375V90.25C101.5 89.6977 101.052 89.25 100.5 89.25H99.5C98.9477 89.25 98.5 89.6977 98.5 90.25V90.375H95.25C94.9739 90.375 94.75 90.5989 94.75 90.875V91C94.75 91.2761 94.9739 91.5 95.25 91.5H104.75C105.026 91.5 105.25 91.2761 105.25 91V90.875C105.25 90.5989 105.026 90.375 104.75 90.375H101.5Z" fill="#3699FF"/>
<rect x="42" y="80" width="32" height="32" rx="6" fill="#F3F6F9"/>
<path d="M64.1383 90.9864C64.7157 91.5638 64.7252 92.497 64.1596 93.086L58.7427 98.7271C58.4674 99.0137 58.0896 99.1795 57.6922 99.1878L55.4169 99.2355L55.465 96.945C55.4731 96.5566 55.6316 96.1866 55.907 95.9127L61.4441 90.4073C62.0303 89.8244 62.9777 89.8258 63.5623 90.4104L64.1383 90.9864Z" fill="#3699FF"/>
<path opacity="0.3" d="M58.6002 89.3333C58.9684 89.3333 59.2668 89.6318 59.2668 90C59.2668 90.3682 58.9684 90.6666 58.6002 90.6666H54.0002C53.2638 90.6666 52.6668 91.2636 52.6668 92V100C52.6668 100.736 53.2638 101.333 54.0002 101.333H62.0002C62.7365 101.333 63.3335 100.736 63.3335 100V96.6666C63.3335 96.2985 63.632 96 64.0002 96C64.3684 96 64.6668 96.2985 64.6668 96.6666V100C64.6668 101.473 63.4729 102.667 62.0002 102.667H54.0002C52.5274 102.667 51.3335 101.473 51.3335 100V92C51.3335 90.5272 52.5274 89.3333 54.0002 89.3333H58.6002Z" fill="#3699FF"/>
<rect y="80" width="32" height="32" rx="6" fill="#F3F6F9"/>
<path fill-rule="evenodd" clip-rule="evenodd" d="M12.25 89.25C10.5931 89.25 9.25 90.5931 9.25 92.25C9.25 93.9069 10.5931 95.25 12.25 95.25H19.75C21.4069 95.25 22.75 93.9069 22.75 92.25C22.75 90.5931 21.4069 89.25 19.75 89.25H12.25ZM13.75 92.25C13.75 93.0784 13.0784 93.75 12.25 93.75C11.4216 93.75 10.75 93.0784 10.75 92.25C10.75 91.4216 11.4216 90.75 12.25 90.75C13.0784 90.75 13.75 91.4216 13.75 92.25Z" fill="#3699FF"/>
<path opacity="0.3" fill-rule="evenodd" clip-rule="evenodd" d="M12.25 96.75C10.5931 96.75 9.25 98.0931 9.25 99.75C9.25 101.407 10.5931 102.75 12.25 102.75H19.75C21.4069 102.75 22.75 101.407 22.75 99.75C22.75 98.0931 21.4069 96.75 19.75 96.75H12.25ZM21.25 99.75C21.25 100.578 20.5784 101.25 19.75 101.25C18.9216 101.25 18.25 100.578 18.25 99.75C18.25 98.9216 18.9216 98.25 19.75 98.25C20.5784 98.25 21.25 98.9216 21.25 99.75Z" fill="#3699FF"/>
<rect x="84" width="32" height="32" rx="6" fill="#F3F6F9"/>
<path d="M95.5 13V22C95.5 22.8284 96.1716 23.5 97 23.5H103C103.828 23.5 104.5 22.8284 104.5 22V13H95.5Z" fill="#3699FF"/>
<path opacity="0.3" fill-rule="evenodd" clip-rule="evenodd" d="M101.5 10.375V10.25C101.5 9.69772 101.052 9.25 100.5 9.25H99.5C98.9477 9.25 98.5 9.69772 98.5 10.25V10.375H95.25C94.9739 10.375 94.75 10.5989 94.75 10.875V11C94.75 11.2761 94.9739 11.5 95.25 11.5H104.75C105.026 11.5 105.25 11.2761 105.25 11V10.875C105.25 10.5989 105.026 10.375 104.75 10.375H101.5Z" fill="#3699FF"/>
<rect x="42" width="32" height="32" rx="6" fill="#F3F6F9"/>
<path d="M64.1383 10.9864C64.7157 11.5638 64.7252 12.497 64.1596 13.086L58.7427 18.7271C58.4674 19.0137 58.0896 19.1795 57.6922 19.1878L55.4169 19.2355L55.465 16.945C55.4731 16.5566 55.6316 16.1866 55.907 15.9127L61.4441 10.4073C62.0303 9.82442 62.9777 9.82578 63.5623 10.4104L64.1383 10.9864Z" fill="#3699FF"/>
<path opacity="0.3" d="M58.6002 9.33331C58.9684 9.33331 59.2668 9.63179 59.2668 9.99998C59.2668 10.3682 58.9684 10.6666 58.6002 10.6666H54.0002C53.2638 10.6666 52.6668 11.2636 52.6668 12V20C52.6668 20.7364 53.2638 21.3333 54.0002 21.3333H62.0002C62.7365 21.3333 63.3335 20.7364 63.3335 20V16.6666C63.3335 16.2985 63.632 16 64.0002 16C64.3684 16 64.6668 16.2985 64.6668 16.6666V20C64.6668 21.4727 63.4729 22.6666 62.0002 22.6666H54.0002C52.5274 22.6666 51.3335 21.4727 51.3335 20V12C51.3335 10.5272 52.5274 9.33331 54.0002 9.33331H58.6002Z" fill="#3699FF"/>
<rect width="32" height="32" rx="6" fill="#F3F6F9"/>
<path fill-rule="evenodd" clip-rule="evenodd" d="M12.25 9.25C10.5931 9.25 9.25 10.5931 9.25 12.25C9.25 13.9069 10.5931 15.25 12.25 15.25H19.75C21.4069 15.25 22.75 13.9069 22.75 12.25C22.75 10.5931 21.4069 9.25 19.75 9.25H12.25ZM13.75 12.25C13.75 13.0784 13.0784 13.75 12.25 13.75C11.4216 13.75 10.75 13.0784 10.75 12.25C10.75 11.4216 11.4216 10.75 12.25 10.75C13.0784 10.75 13.75 11.4216 13.75 12.25Z" fill="#3699FF"/>
<path opacity="0.3" fill-rule="evenodd" clip-rule="evenodd" d="M12.25 16.75C10.5931 16.75 9.25 18.0931 9.25 19.75C9.25 21.4069 10.5931 22.75 12.25 22.75H19.75C21.4069 22.75 22.75 21.4069 22.75 19.75C22.75 18.0931 21.4069 16.75 19.75 16.75H12.25ZM21.25 19.75C21.25 20.5784 20.5784 21.25 19.75 21.25C18.9216 21.25 18.25 20.5784 18.25 19.75C18.25 18.9216 18.9216 18.25 19.75 18.25C20.5784 18.25 21.25 18.9216 21.25 19.75Z" fill="#3699FF"/>
</svg>
