<svg width="12" height="202" viewBox="0 0 12 202" fill="none" xmlns="http://www.w3.org/2000/svg">
<path d="M9.90414 0.235721C10.2188 -0.078565 10.7289 -0.078565 11.0435 0.235721C11.3582 0.550008 11.3582 1.05957 11.0435 1.37385L6.2095 6.20254C5.90449 6.50721 5.41336 6.51787 5.09539 6.22672L0.261357 1.80043C-0.0666487 1.50009 -0.0888062 0.991009 0.211865 0.663368C0.512536 0.335726 1.02218 0.313592 1.35018 0.61393L5.61557 4.51954L9.90414 0.235721Z" fill="white"/>
<path d="M4.20535 49.7196C3.96937 49.4839 3.96937 49.1017 4.20535 48.866C4.44133 48.6303 4.82392 48.6303 5.0599 48.866L8.68542 52.4875C8.91418 52.716 8.92218 53.084 8.70358 53.3222L5.38018 56.9437C5.15468 57.1894 4.77244 57.206 4.52644 56.9808C4.28044 56.7555 4.26382 56.3737 4.48932 56.128L7.42178 52.9325L4.20535 49.7196Z" fill="#494B69"/>
<path d="M4.20535 98.0065C3.96937 97.7708 3.96937 97.3886 4.20535 97.1529C4.44133 96.9172 4.82392 96.9172 5.0599 97.1529L8.68542 100.774C8.91418 101.003 8.92218 101.371 8.70358 101.609L5.38018 105.231C5.15468 105.476 4.77244 105.493 4.52644 105.268C4.28044 105.042 4.26382 104.661 4.48932 104.415L7.42178 101.219L4.20535 98.0065Z" fill="#494B69"/>
<path d="M4.20535 146.293C3.96937 146.058 3.96937 145.675 4.20535 145.44C4.44133 145.204 4.82392 145.204 5.0599 145.44L8.68542 149.061C8.91418 149.29 8.92218 149.658 8.70358 149.896L5.38018 153.517C5.15468 153.763 4.77244 153.78 4.52644 153.554C4.28044 153.329 4.26382 152.947 4.48932 152.702L7.42178 149.506L4.20535 146.293Z" fill="#494B69"/>
<path d="M4.20535 194.58C3.96937 194.344 3.96937 193.962 4.20535 193.727C4.44133 193.491 4.82392 193.491 5.0599 193.727L8.68542 197.348C8.91418 197.577 8.92218 197.945 8.70358 198.183L5.38018 201.804C5.15468 202.05 4.77244 202.067 4.52644 201.841C4.28044 201.616 4.26382 201.234 4.48932 200.989L7.42178 197.793L4.20535 194.58Z" fill="#494B69"/>
</svg>
