<svg width="99" height="71" viewBox="0 0 99 71" fill="none" xmlns="http://www.w3.org/2000/svg">
<path opacity="0.3" fill-rule="evenodd" clip-rule="evenodd" d="M16.4619 10.875C16.4619 9.77043 17.3573 8.875 18.4619 8.875H80.3094C81.4139 8.875 82.3094 9.77043 82.3094 10.875V60.125C82.3094 61.2296 81.4139 62.125 80.3094 62.125H18.4619C17.3573 62.125 16.4619 61.2296 16.4619 60.125V10.875ZM20.5774 15.2917C20.5774 15.0155 20.8012 14.7917 21.0774 14.7917H28.3083C28.5845 14.7917 28.8083 15.0155 28.8083 15.2917V20.2083C28.8083 20.4845 28.5845 20.7083 28.3083 20.7083H21.0774C20.8012 20.7083 20.5774 20.4845 20.5774 20.2083V15.2917ZM70.463 14.7917C70.1868 14.7917 69.963 15.0155 69.963 15.2917V20.2083C69.963 20.4845 70.1868 20.7083 70.463 20.7083H77.6939C77.9701 20.7083 78.1939 20.4845 78.1939 20.2083V15.2917C78.1939 15.0155 77.9701 14.7917 77.6939 14.7917H70.463ZM20.5774 27.125C20.5774 26.8489 20.8012 26.625 21.0774 26.625H28.3083C28.5845 26.625 28.8083 26.8489 28.8083 27.125V32.0417C28.8083 32.3178 28.5845 32.5417 28.3083 32.5417H21.0774C20.8012 32.5417 20.5774 32.3178 20.5774 32.0417V27.125ZM70.463 26.625C70.1868 26.625 69.963 26.8489 69.963 27.125V32.0417C69.963 32.3178 70.1868 32.5417 70.463 32.5417H77.6939C77.9701 32.5417 78.1939 32.3178 78.1939 32.0417V27.125C78.1939 26.8489 77.9701 26.625 77.6939 26.625H70.463ZM20.5774 38.9583C20.5774 38.6822 20.8012 38.4583 21.0774 38.4583H28.3083C28.5845 38.4583 28.8083 38.6822 28.8083 38.9583V43.875C28.8083 44.1511 28.5845 44.375 28.3083 44.375H21.0774C20.8012 44.375 20.5774 44.1511 20.5774 43.875V38.9583ZM70.463 38.4583C70.1868 38.4583 69.963 38.6822 69.963 38.9583V43.875C69.963 44.1511 70.1868 44.375 70.463 44.375H77.6939C77.9701 44.375 78.1939 44.1511 78.1939 43.875V38.9583C78.1939 38.6822 77.9701 38.4583 77.6939 38.4583H70.463ZM69.963 50.7917C69.963 50.5155 70.1868 50.2917 70.463 50.2917H77.6939C77.9701 50.2917 78.1939 50.5155 78.1939 50.7917V55.7083C78.1939 55.9845 77.9701 56.2083 77.6939 56.2083H70.463C70.1868 56.2083 69.963 55.9845 69.963 55.7083V50.7917ZM21.0774 50.2917C20.8012 50.2917 20.5774 50.5155 20.5774 50.7917V55.7083C20.5774 55.9845 20.8012 56.2083 21.0774 56.2083H28.3083C28.5845 56.2083 28.8083 55.9845 28.8083 55.7083V50.7917C28.8083 50.5155 28.5845 50.2917 28.3083 50.2917H21.0774Z" fill="white"/>
<path fill-rule="evenodd" clip-rule="evenodd" d="M43.5005 43.8885C43.5005 44.2587 43.8888 44.5005 44.221 44.3372L59.0059 37.0725C59.3781 36.8896 59.3787 36.3593 59.007 36.1755L44.2221 28.8649C43.8898 28.7006 43.5005 28.9424 43.5005 29.3131V43.8885Z" fill="white"/>
</svg>
