<svg width="20" height="20" viewBox="0 0 20 20" fill="none" xmlns="http://www.w3.org/2000/svg">
<rect width="8.75" height="8.74032" rx="1.5" fill="#6993FF"/>
<path opacity="0.3" fill-rule="evenodd" clip-rule="evenodd" d="M11.25 1.55645C11.25 0.696845 11.9469 0 12.8065 0H18.4436C19.3032 0 20 0.696846 20 1.55645V7.18387C20 8.04347 19.3032 8.74032 18.4436 8.74032H12.8065C11.9469 8.74032 11.25 8.04347 11.25 7.18387V1.55645ZM0 12.794C0 11.9344 0.696845 11.2376 1.55645 11.2376H7.19356C8.05316 11.2376 8.75 11.9344 8.75 12.794V18.4214C8.75 19.281 8.05316 19.9779 7.19356 19.9779H1.55645C0.696845 19.9779 0 19.281 0 18.4214V12.794ZM12.8065 11.2376C11.9469 11.2376 11.25 11.9344 11.25 12.794V18.4214C11.25 19.281 11.9469 19.9779 12.8065 19.9779H18.4436C19.3032 19.9779 20 19.281 20 18.4214V12.794C20 11.9344 19.3032 11.2376 18.4436 11.2376H12.8065Z" fill="#6993FF"/>
</svg>
