<svg width="19" height="17" viewBox="0 0 19 17" fill="none" xmlns="http://www.w3.org/2000/svg">
<path d="M9.36912 2.07291C9.84385 1.59871 9.84385 0.829864 9.36912 0.355656C8.89438 -0.118552 8.12469 -0.118552 7.64995 0.355656L0.356168 7.64137C-0.104044 8.10107 -0.120145 8.84128 0.319642 9.32052L7.00561 16.6062C7.45928 17.1006 8.22824 17.134 8.72315 16.6808C9.21806 16.2277 9.25149 15.4595 8.79783 14.9652L2.89835 8.53652L9.36912 2.07291Z" fill="#6993FF"/>
<path opacity="0.3" d="M17.8786 2.07291C18.3533 1.59871 18.3533 0.829864 17.8786 0.355656C17.4039 -0.118552 16.6342 -0.118552 16.1594 0.355656L8.86566 7.64137C8.40545 8.10107 8.38935 8.84128 8.82914 9.32052L15.5151 16.6062C15.9688 17.1006 16.7377 17.134 17.2326 16.6808C17.7276 16.2277 17.761 15.4595 17.3073 14.9652L11.4078 8.53652L17.8786 2.07291Z" fill="#6993FF"/>
</svg>
