<svg width="20" height="20" viewBox="0 0 20 20" fill="none" xmlns="http://www.w3.org/2000/svg">
<path fill-rule="evenodd" clip-rule="evenodd" d="M4.33325 2.5C3.78097 2.5 3.33325 2.94772 3.33325 3.5V16.5C3.33325 17.0523 3.78097 17.5 4.33325 17.5H4.83325C5.38554 17.5 5.83325 17.0523 5.83325 16.5V3.5C5.83325 2.94772 5.38554 2.5 4.83325 2.5H4.33325ZM8.49992 2.5C7.94763 2.5 7.49992 2.94772 7.49992 3.5V16.5C7.49992 17.0523 7.94763 17.5 8.49992 17.5H8.99992C9.5522 17.5 9.99992 17.0523 9.99992 16.5V3.5C9.99992 2.94772 9.5522 2.5 8.99992 2.5H8.49992Z" fill="#8950FC"/>
<rect opacity="0.3" x="11.231" y="3.27017" width="2.5" height="15" rx="1" transform="rotate(-19 11.231 3.27017)" fill="#8950FC"/>
</svg>
