<svg width="20" height="20" viewBox="0 0 20 20" fill="none" xmlns="http://www.w3.org/2000/svg">
<path opacity="0.3" fill-rule="evenodd" clip-rule="evenodd" d="M8.2323 10.5892L6.46453 12.357C6.1391 12.6824 6.1391 13.2101 6.46453 13.5355C6.78997 13.861 7.31761 13.861 7.64305 13.5355L9.41081 11.7678L10.0001 12.357C10.6509 13.0079 10.6509 14.0632 10.0001 14.714L7.64305 17.0711C6.99217 17.7219 5.9369 17.7219 5.28602 17.0711L2.929 14.714C2.27813 14.0632 2.27813 13.0079 2.929 12.357L5.28602 9.99999C5.9369 9.34911 6.99217 9.34911 7.64305 9.99999L8.2323 10.5892Z" fill="#F64E60"/>
<path fill-rule="evenodd" clip-rule="evenodd" d="M11.7678 9.41076L13.5356 7.64299C13.861 7.31755 13.861 6.78991 13.5356 6.46448C13.2101 6.13904 12.6825 6.13904 12.3571 6.46448L10.5893 8.23224L10 7.64299C9.34917 6.99212 9.34917 5.93684 10 5.28597L12.3571 2.92894C13.0079 2.27807 14.0632 2.27807 14.7141 2.92894L17.0711 5.28597C17.722 5.93684 17.722 6.99211 17.0711 7.64299L14.7141 10C14.0632 10.6509 13.0079 10.6509 12.3571 10L11.7678 9.41076Z" fill="#F64E60"/>
<path opacity="0.3" fill-rule="evenodd" clip-rule="evenodd" d="M3.51826 4.69669C3.19282 4.37125 3.19283 3.84361 3.51826 3.51818C3.8437 3.19274 4.37134 3.19274 4.69677 3.51818L5.87528 4.69669C6.20072 5.02212 6.20072 5.54976 5.87528 5.8752C5.54985 6.20063 5.02221 6.20063 4.69677 5.8752L3.51826 4.69669ZM6.95269 2.09559C6.95269 1.63535 7.32579 1.26225 7.78603 1.26225C8.24627 1.26225 8.61936 1.63535 8.61936 2.09559L8.61936 3.76225C8.61936 4.22249 8.24627 4.59559 7.78603 4.59559C7.32579 4.59559 6.95269 4.22249 6.95269 3.76225V2.09559ZM1.40532 7.64296C1.40532 7.18273 1.77841 6.80963 2.23865 6.80963L3.90532 6.80963C4.36555 6.80963 4.73865 7.18273 4.73865 7.64296C4.73865 8.1032 4.36556 8.4763 3.90532 8.4763L2.23865 8.4763C1.77841 8.4763 1.40532 8.1032 1.40532 7.64296Z" fill="#F64E60"/>
<path opacity="0.3" fill-rule="evenodd" clip-rule="evenodd" d="M15.2023 16.3807C15.5277 16.7062 16.0554 16.7062 16.3808 16.3807C16.7062 16.0553 16.7062 15.5277 16.3808 15.2022L15.2023 14.0237C14.8769 13.6983 14.3492 13.6983 14.0238 14.0237C13.6984 14.3491 13.6984 14.8768 14.0238 15.2022L15.2023 16.3807ZM17.8034 12.9463C18.2636 12.9463 18.6367 12.5732 18.6367 12.113C18.6367 11.6527 18.2636 11.2796 17.8034 11.2796L16.1367 11.2796C15.6765 11.2796 15.3034 11.6527 15.3034 12.113C15.3034 12.5732 15.6765 12.9463 16.1367 12.9463L17.8034 12.9463ZM12.256 18.4937C12.7163 18.4937 13.0894 18.1206 13.0894 17.6603V15.9937C13.0894 15.5334 12.7163 15.1603 12.256 15.1603C11.7958 15.1603 11.4227 15.5334 11.4227 15.9937L11.4227 17.6603C11.4227 18.1206 11.7958 18.4937 12.256 18.4937Z" fill="#F64E60"/>
</svg>
