<svg width="29" height="29" viewBox="0 0 29 29" fill="none" xmlns="http://www.w3.org/2000/svg">
<path d="M16.186 29H12.8143C7.39011 29 2.97729 24.5871 2.97729 19.163V3.26907C2.97724 1.46648 4.44372 0 6.24631 0C8.0489 0 9.51538 1.46648 9.51538 3.26907V19.163C9.51538 20.982 10.9953 22.4619 12.8143 22.4619H16.186C18.005 22.4619 19.4849 20.9821 19.4849 19.163C19.4849 17.344 18.005 15.8641 16.186 15.8641H14.5949C12.7923 15.8641 11.3258 14.3976 11.3258 12.5951C11.3258 10.7925 12.7922 9.32599 14.5949 9.32599H16.186C21.6101 9.32599 26.0229 13.7389 26.0229 19.1629C26.0229 24.5871 21.6101 29 16.186 29Z" fill="#FF3C3C"/>
<path d="M16.1857 9.32599H15.3677V15.8641H16.1857C18.0047 15.8641 19.4845 17.3439 19.4845 19.1629C19.4845 20.9819 18.0047 22.4619 16.1857 22.4619H15.3677V28.9999H16.1857C21.6098 28.9999 26.0226 24.5871 26.0226 19.1629C26.0226 13.7388 21.6098 9.32599 16.1857 9.32599Z" fill="#DA0806"/>
</svg>
