<svg width="21" height="24" viewBox="0 0 21 24" fill="none" xmlns="http://www.w3.org/2000/svg">
<path d="M9.54714 17.0844C10.1055 17.5311 10.8989 17.5308 11.4569 17.0838L19.8398 10.3678L20.4243 9.902C21.1908 9.29116 21.1921 8.12676 20.4269 7.51428L11.457 0.335024C10.8989 -0.111675 10.1057 -0.111675 9.54756 0.335024L0.573172 7.51793C-0.190599 8.12924 -0.191096 9.29085 0.572153 9.90281L1.15208 10.3678L9.54714 17.0844Z" fill="#6993FF"/>
<path opacity="0.3" fill-rule="evenodd" clip-rule="evenodd" d="M11.4443 20.4007C10.8862 20.8473 10.0931 20.8474 9.53502 20.4009L2.05782 14.4186C1.55348 14.0151 0.816173 14.104 0.422273 14.6159C0.0336149 15.121 0.127935 15.8455 0.632953 16.2342L9.5686 23.1122C10.1179 23.5349 10.8829 23.535 11.4322 23.1123L20.3638 16.2401C20.8731 15.8483 20.9679 15.1176 20.5756 14.6086C20.1784 14.0935 19.4359 14.0043 18.9281 14.4108L11.4443 20.4007Z" fill="#6993FF"/>
</svg>
