<svg width="29" height="29" viewBox="0 0 29 29" fill="none" xmlns="http://www.w3.org/2000/svg">
<g clip-path="url(#clip0_200_2645)">
<path d="M21.508 14.984H16.4381C16.2031 14.984 16.0126 14.7934 16.0126 14.5584V13.7553C16.0126 13.6307 16.0671 13.5124 16.1619 13.4315C16.6539 13.0119 16.936 12.4009 16.936 11.7552C16.936 10.5408 15.948 9.55275 14.7336 9.55275C13.5192 9.55275 12.5312 10.5408 12.5312 11.7552C12.5312 12.3692 12.7778 12.9392 13.2256 13.3601C13.3112 13.4406 13.3596 13.5528 13.3596 13.6703V14.5585C13.3596 14.7935 13.1691 14.984 12.9341 14.984H7.49199C7.25695 14.984 7.06641 14.7935 7.06641 14.5585V0.425589C7.06641 0.190543 7.25695 0 7.49199 0H21.508C21.7431 0 21.9336 0.190486 21.9336 0.425589V4.20481H22.1912C22.7547 3.67615 23.5064 3.37631 24.282 3.37631C25.9658 3.37631 27.3356 4.74616 27.3356 6.42992C27.3356 8.11368 25.9658 9.48353 24.282 9.48353C23.4544 9.48353 22.6679 9.14927 22.0943 8.56002H21.9335V14.5585C21.9335 14.7935 21.7431 14.984 21.508 14.984Z" fill="#FF7C48"/>
<path d="M24.2821 3.37631C23.5065 3.37631 22.7547 3.67615 22.1912 4.20481H21.9337V0.425589C21.9337 0.190543 21.7431 0 21.5081 0H14.7336V9.55275C15.948 9.55275 16.9361 10.5408 16.9361 11.7552C16.9361 12.4009 16.6539 13.0119 16.162 13.4315C16.0672 13.5124 16.0126 13.6307 16.0126 13.7553V14.5584C16.0126 14.7934 16.2031 14.984 16.4382 14.984H21.5081C21.7431 14.984 21.9337 14.7934 21.9337 14.5584V8.55996H22.0944C22.668 9.14922 23.4545 9.48347 24.2822 9.48347C25.9659 9.48347 27.3358 8.11362 27.3358 6.42986C27.3358 4.7461 25.9659 3.37631 24.2821 3.37631Z" fill="#FF415B"/>
<path d="M21.5079 29.0001H7.49193C7.25688 29.0001 7.06634 28.8096 7.06634 28.5745V23.6966H6.90567C6.332 24.2858 5.54557 24.62 4.71792 24.62C3.03416 24.62 1.66431 23.2502 1.66431 21.5665C1.66431 19.8827 3.03416 18.5129 4.71792 18.5129C5.49364 18.5129 6.24532 18.8127 6.80879 19.3413H7.06634V14.5584C7.06634 14.3234 7.25688 14.1328 7.49193 14.1328H12.5084V13.8461C11.9797 13.2826 11.68 12.5309 11.68 11.7552C11.68 10.0715 13.0498 8.7016 14.7335 8.7016C16.4173 8.7016 17.7871 10.0715 17.7871 11.7552C17.7871 12.5829 17.4529 13.3694 16.8637 13.943V14.1329H21.5079C21.743 14.1329 21.9335 14.3234 21.9335 14.5585V19.767C21.9335 20.002 21.743 20.1925 21.5079 20.1925H20.6489C20.5315 20.1925 20.4193 20.144 20.3388 20.0585C19.918 19.6107 19.348 19.3642 18.7339 19.3642C17.5195 19.3642 16.5315 20.3522 16.5315 21.5666C16.5315 22.781 17.5195 23.769 18.7339 23.769C19.3796 23.769 19.9906 23.4868 20.4103 22.9949C20.4911 22.9001 20.6095 22.8455 20.734 22.8455H21.5079C21.7429 22.8455 21.9335 23.036 21.9335 23.2711V28.5746C21.9335 28.8096 21.743 29.0001 21.5079 29.0001Z" fill="#8EE16A"/>
<path d="M18.7339 19.3641C19.3479 19.3641 19.9179 19.6107 20.3388 20.0584C20.4192 20.144 20.5315 20.1925 20.6489 20.1925H21.5079C21.7429 20.1925 21.9335 20.002 21.9335 19.7669V14.5584C21.9335 14.3234 21.7429 14.1328 21.5079 14.1328H16.8636V13.9429C17.4528 13.3693 17.787 12.5828 17.787 11.7552C17.787 10.0714 16.4172 8.70154 14.7334 8.70154V29H21.5078C21.7429 29 21.9334 28.8095 21.9334 28.5744V23.2709C21.9334 23.0358 21.7429 22.8453 21.5078 22.8453H20.734C20.6094 22.8453 20.4911 22.8999 20.4102 22.9947C19.9906 23.4866 19.3796 23.7687 18.7339 23.7687C17.5195 23.7687 16.5315 22.7808 16.5315 21.5664C16.5315 20.3521 17.5195 19.3641 18.7339 19.3641Z" fill="#00CAB1"/>
</g>
<defs>
<clipPath id="clip0_200_2645">
<rect width="29" height="29" fill="white"/>
</clipPath>
</defs>
</svg>
