<svg width="20" height="20" viewBox="0 0 20 20" fill="none" xmlns="http://www.w3.org/2000/svg">
<rect opacity="0.3" width="10" height="19.9779" fill="#4A4B68"/>
<path fill-rule="evenodd" clip-rule="evenodd" d="M17.5 2.49723H13.75C13.75 2.49723 12.5 2.28301 12.5 1.24862C12.5 0.21423 13.75 0 13.75 0H20V6.24309C20 6.24309 20 7.4917 18.75 7.4917C17.5 7.4917 17.5 6.24309 17.5 6.24309V2.49723ZM6.25 17.4806H2.5V13.7348C2.5 13.7348 2.5 12.4862 1.25 12.4862C0 12.4862 0 13.7348 0 13.7348V19.9779H6.25C6.25 19.9779 7.5 19.7636 7.5 18.7293C7.5 17.6949 6.25 17.4806 6.25 17.4806ZM17.5 13.7348V17.4806H13.75C13.75 17.4806 12.5 17.4806 12.5 18.7293C12.5 19.9779 13.75 19.9779 13.75 19.9779H20V13.7348C20 13.7348 19.7855 12.4862 18.75 12.4862C17.7145 12.4862 17.5 13.7348 17.5 13.7348ZM2.5 6.24308V2.49723H6.25C6.25 2.49723 7.5 2.49723 7.5 1.24862C7.5 0 6.25 0 6.25 0H0V6.24308C0 6.24308 0.214466 7.4917 1.25 7.4917C2.28553 7.4917 2.5 6.24308 2.5 6.24308Z" fill="#4A4B68"/>
</svg>
