<svg width="956" height="287" viewBox="0 0 956 287" fill="none" xmlns="http://www.w3.org/2000/svg">
<path d="M22.6433 170H65.9885C68.1976 170 69.9884 171.791 69.9884 174V283C69.9884 285.209 68.1976 287 65.9885 287H22.6433V170Z" fill="#E5EAEE"/>
<rect y="140" width="28.8188" height="147" rx="4" fill="#FFA800"/>
<path d="M199.674 121H243.019C245.228 121 247.019 122.791 247.019 125V283C247.019 285.209 245.228 287 243.019 287H199.674V121Z" fill="#E5EAEE"/>
<rect x="177.03" y="90.9999" width="28.8188" height="196" rx="4" fill="#FFA800"/>
<path d="M376.703 69.9999H420.048C422.257 69.9999 424.048 71.7908 424.048 73.9999V283C424.048 285.209 422.257 287 420.048 287H376.703V69.9999Z" fill="#E5EAEE"/>
<rect x="354.06" y="40" width="28.8187" height="247" rx="4" fill="#FFA800"/>
<path d="M553.733 109.535H597.078C599.287 109.535 601.078 111.325 601.078 113.535V283C601.078 285.209 599.287 287 597.078 287H553.733V109.535Z" fill="#E5EAEE"/>
<rect x="531.09" y="79.9999" width="28.8188" height="207" rx="4" fill="#FFA800"/>
<path d="M730.762 78.6708H774.107C776.316 78.6708 778.107 80.4617 778.107 82.6708V283C778.107 285.209 776.316 287 774.107 287H730.762V78.6708Z" fill="#E5EAEE"/>
<rect x="708.119" y="49" width="28.8188" height="238" rx="4" fill="#FFA800"/>
<path d="M907.792 30H951.137C953.346 30 955.137 31.7908 955.137 34V283C955.137 285.209 953.346 287 951.137 287H907.792V30Z" fill="#E5EAEE"/>
<rect x="885.149" width="28.8186" height="287" rx="4" fill="#FFA800"/>
</svg>
