<svg width="29" height="29" viewBox="0 0 29 29" fill="none" xmlns="http://www.w3.org/2000/svg">
<g clip-path="url(#clip0_200_2630)">
<path d="M20.323 14.576L25.3858 8.21048C27.0678 6.05287 26.7451 2.82487 24.4685 1.05796C22.209 -0.675024 19.0318 -0.216251 17.3328 1.97534C17.197 2.1283 13.2895 7.02128 12.7797 7.6329C12.7627 7.66693 12.7457 7.68381 12.7457 7.68381V5.10146C12.7457 2.29814 10.4522 0.00461243 7.64885 0.00461243C4.84553 0.00461243 2.552 2.29814 2.552 5.10146V23.9032C2.552 26.7064 4.84553 29 7.64885 29C10.4522 29 12.7457 26.7064 12.7457 23.9032V21.3717C12.8817 21.5416 17.3158 27.0179 17.3328 27.0179C19.0828 29.2435 22.243 29.6513 24.4685 27.9183C26.762 26.1344 27.0507 23.0027 25.3858 20.8281L20.323 14.576Z" fill="#7FE881"/>
<path d="M25.386 20.8281C27.0509 23.0027 26.7622 26.1344 24.4687 27.9183C22.2431 29.6513 19.0829 29.2435 17.333 27.0179C17.316 27.0179 12.8819 21.5416 12.7458 21.3717V7.68381C12.7458 7.68381 12.7628 7.66693 12.7799 7.6329C13.2896 7.02128 17.1971 2.1283 17.333 1.97534C19.0319 -0.216251 22.2092 -0.675024 24.4687 1.05796C26.7452 2.82481 27.0679 6.05287 25.386 8.21048L20.3232 14.576L25.386 20.8281Z" fill="#5BC980"/>
</g>
<defs>
<clipPath id="clip0_200_2630">
<rect width="29" height="29" fill="white"/>
</clipPath>
</defs>
</svg>
