<svg width="71" height="81" viewBox="0 0 71 81" fill="none" xmlns="http://www.w3.org/2000/svg">
<rect x="11.7148" y="13.5" width="20.501" height="23.625" rx="1.5" fill="#B5B5C3"/>
<path opacity="0.3" fill-rule="evenodd" clip-rule="evenodd" d="M38.0733 15C38.0733 14.1716 38.7449 13.5 39.5733 13.5H57.0743C57.9028 13.5 58.5743 14.1716 58.5743 15V35.625C58.5743 36.4534 57.9028 37.125 57.0743 37.125H39.5733C38.7449 37.125 38.0733 36.4534 38.0733 35.625V15ZM11.7148 45.375C11.7148 44.5466 12.3864 43.875 13.2148 43.875H30.7159C31.5443 43.875 32.2159 44.5466 32.2159 45.375V66C32.2159 66.8284 31.5443 67.5 30.7159 67.5H13.2148C12.3864 67.5 11.7148 66.8284 11.7148 66V45.375ZM39.5733 43.875C38.7449 43.875 38.0733 44.5466 38.0733 45.375V66C38.0733 66.8284 38.7449 67.5 39.5733 67.5H57.0743C57.9028 67.5 58.5743 66.8284 58.5743 66V45.375C58.5743 44.5466 57.9028 43.875 57.0743 43.875H39.5733Z" fill="#B5B5C3"/>
</svg>
